<svg xmlns="http://www.w3.org/2000/svg" version="1.1" xmlns:xlink="http://www.w3.org/1999/xlink" xmlns:svgjs="http://svgjs.dev/svgjs" width="1440" height="560" preserveAspectRatio="none" viewBox="0 0 1440 560"><g mask="url(&quot;#SvgjsMask1025&quot;)" fill="none"><rect width="1440" height="560" x="0" y="0" fill="#0e2a47"></rect><path d="M 0,15 C 41.2,124 123.6,520 206,560 C 288.4,600 329.6,252.8 412,215 C 494.4,177.2 535.6,388.4 618,371 C 700.4,353.6 741.6,97 824,128 C 906.4,159 947.6,511 1030,526 C 1112.4,541 1154,198.2 1236,203 C 1318,207.8 1399.2,480.6 1440,550L1440 560L0 560z" fill="rgba(29, 48, 84, 1)"></path><path d="M 0,345 C 28.8,304.4 86.4,123.4 144,142 C 201.6,160.6 230.4,442.4 288,438 C 345.6,433.6 374.4,149.2 432,120 C 489.6,90.8 518.4,274.8 576,292 C 633.6,309.2 662.4,194.8 720,206 C 777.6,217.2 806.4,388.6 864,348 C 921.6,307.4 950.4,-5 1008,3 C 1065.6,11 1094.4,357.2 1152,388 C 1209.6,418.8 1238.4,160.6 1296,157 C 1353.6,153.4 1411.2,327.4 1440,370L1440 560L0 560z" fill="rgba(11, 51, 94, 1)"></path><path d="M 0,329 C 72,273.8 216,25 360,53 C 504,81 576,437.2 720,469 C 864,500.8 936,214.8 1080,212 C 1224,209.2 1368,406.4 1440,455L1440 560L0 560z" fill="rgba(23, 58, 95, 1)"></path></g><defs><mask id="SvgjsMask1025"><rect width="1440" height="560" fill="#ffffff"></rect></mask></defs></svg>